<svg xmlns="http://www.w3.org/2000/svg" width="20" height="20" viewBox="0 0 20 20" fill="none">
  <path d="M5.00008 9.16671V12.5M15.0001 7.50004V10.8334M14.1667 3.33337C16.2073 3.33337 17.311 3.64567 17.8602 3.88791C17.9333 3.92017 17.9699 3.9363 18.0754 4.03702C18.1387 4.09739 18.2542 4.27454 18.2839 4.35678C18.3334 4.49399 18.3334 4.56899 18.3334 4.71899V13.676C18.3334 14.4333 18.3334 14.812 18.2198 15.0066C18.1043 15.2046 17.9929 15.2966 17.7767 15.3727C17.5641 15.4475 17.1351 15.3651 16.2769 15.2002C15.6762 15.0848 14.9638 15 14.1667 15C11.6667 15 9.16675 16.6667 5.83341 16.6667C3.79283 16.6667 2.68914 16.3544 2.13998 16.1122C2.06685 16.0799 2.03028 16.0638 1.92475 15.9631C1.86149 15.9027 1.74601 15.7255 1.71631 15.6433C1.66675 15.5061 1.66675 15.4311 1.66675 15.2811L1.66675 6.32409C1.66675 5.56678 1.66675 5.18813 1.78031 4.99349C1.89583 4.79551 2.00724 4.70347 2.22346 4.62738C2.43603 4.55258 2.86511 4.63503 3.72327 4.79991C4.32393 4.91532 5.03631 5.00004 5.83341 5.00004C8.33341 5.00004 10.8334 3.33337 14.1667 3.33337ZM12.0834 10C12.0834 11.1506 11.1507 12.0834 10.0001 12.0834C8.84949 12.0834 7.91675 11.1506 7.91675 10C7.91675 8.84945 8.84949 7.91671 10.0001 7.91671C11.1507 7.91671 12.0834 8.84945 12.0834 10Z" stroke="#94A3B8" stroke-width="1.5" stroke-linecap="round" stroke-linejoin="round"/>
</svg>