<svg xmlns="http://www.w3.org/2000/svg" width="48" height="48" viewBox="0 0 48 48" fill="none">
  <path fill-rule="evenodd" clip-rule="evenodd" d="M23.8333 0C10.6705 0 0 10.6705 0 23.8333C0 36.9961 10.6705 47.6667 23.8333 47.6667C36.9961 47.6667 47.6667 36.9961 47.6667 23.8333C47.6667 10.6705 36.9961 0 23.8333 0ZM35.1154 18.8654C35.9615 18.0193 35.9615 16.6474 35.1154 15.8013C34.2693 14.9551 32.8974 14.9551 32.0513 15.8013L20.5833 27.2692L15.6154 22.3013C14.7693 21.4551 13.3974 21.4551 12.5513 22.3013C11.7051 23.1474 11.7051 24.5193 12.5513 25.3654L19.0513 31.8654C19.8974 32.7115 21.2693 32.7115 22.1154 31.8654L35.1154 18.8654Z" fill="url(#paint0_linear_14_11008)"/>
  <path d="M35.1154 15.8013C35.9615 16.6474 35.9615 18.0193 35.1154 18.8654L22.1154 31.8654C21.2693 32.7115 19.8974 32.7115 19.0513 31.8654L12.5513 25.3654C11.7051 24.5193 11.7051 23.1474 12.5513 22.3013C13.3974 21.4551 14.7693 21.4551 15.6154 22.3013L20.5833 27.2692L32.0513 15.8013C32.8974 14.9551 34.2693 14.9551 35.1154 15.8013Z" fill="white"/>
  <defs>
    <linearGradient id="paint0_linear_14_11008" x1="23.8333" y1="0" x2="23.8333" y2="47.6667" gradientUnits="userSpaceOnUse">
      <stop stop-color="#4683FC"/>
      <stop offset="1" stop-color="#4E4FE8"/>
    </linearGradient>
  </defs>
</svg>