<svg xmlns="http://www.w3.org/2000/svg" width="20" height="20" viewBox="0 0 20 20" fill="none">
  <g clip-path="url(#clip0_2231_2350)">
    <path d="M7.50008 1.66663V3.33329M12.5001 1.66663V3.33329M7.50008 16.6666V18.3333M12.5001 16.6666V18.3333M16.6667 7.49996H18.3334M16.6667 11.6666H18.3334M1.66675 7.49996H3.33341M1.66675 11.6666H3.33341M7.33341 16.6666H12.6667C14.0669 16.6666 14.7669 16.6666 15.3017 16.3941C15.7721 16.1545 16.1546 15.772 16.3943 15.3016C16.6667 14.7668 16.6667 14.0668 16.6667 12.6666V7.33329C16.6667 5.93316 16.6667 5.2331 16.3943 4.69832C16.1546 4.22791 15.7721 3.84546 15.3017 3.60578C14.7669 3.33329 14.0669 3.33329 12.6667 3.33329H7.33341C5.93328 3.33329 5.23322 3.33329 4.69844 3.60578C4.22803 3.84546 3.84558 4.22791 3.6059 4.69832C3.33341 5.2331 3.33341 5.93316 3.33341 7.33329V12.6666C3.33341 14.0668 3.33341 14.7668 3.6059 15.3016C3.84558 15.772 4.22803 16.1545 4.69844 16.3941C5.23322 16.6666 5.93328 16.6666 7.33341 16.6666ZM8.83341 12.5H11.1667C11.6335 12.5 11.8668 12.5 12.0451 12.4091C12.2019 12.3292 12.3294 12.2018 12.4093 12.045C12.5001 11.8667 12.5001 11.6333 12.5001 11.1666V8.83329C12.5001 8.36658 12.5001 8.13323 12.4093 7.95497C12.3294 7.79817 12.2019 7.67068 12.0451 7.59079C11.8668 7.49996 11.6335 7.49996 11.1667 7.49996H8.83341C8.3667 7.49996 8.13335 7.49996 7.95509 7.59079C7.79829 7.67068 7.6708 7.79817 7.59091 7.95497C7.50008 8.13323 7.50008 8.36658 7.50008 8.83329V11.1666C7.50008 11.6333 7.50008 11.8667 7.59091 12.045C7.6708 12.2018 7.79829 12.3292 7.95509 12.4091C8.13335 12.5 8.3667 12.5 8.83341 12.5Z" stroke="#94A3B8" stroke-width="1.5" stroke-linecap="round" stroke-linejoin="round"/>
  </g>
  <defs>
    <clipPath id="clip0_2231_2350">
      <rect width="20" height="20" fill="white"/>
    </clipPath>
  </defs>
</svg>