<svg xmlns="http://www.w3.org/2000/svg" width="193" height="141" viewBox="0 0 193 141" fill="none">
  <path d="M101.398 115.222C130.969 115.222 154.94 91.0574 154.94 61.249C154.94 31.4406 130.969 7.27612 101.398 7.27612C71.8272 7.27612 47.8555 31.4406 47.8555 61.249C47.8555 91.0574 71.8272 115.222 101.398 115.222Z" fill="#2A2E39"/>
  <g filter="url(#filter0_d_2029_6527)">
    <path d="M167.653 41.5928C169.161 41.5928 170.346 42.7873 170.346 44.3077V104.579C170.346 106.1 169.161 107.294 167.653 107.294H75.8656C74.3574 107.294 73.1724 106.1 73.1724 104.579V44.3077C73.1724 42.7873 74.3574 41.5928 75.8656 41.5928H167.653Z" fill="#474E61"/>
  </g>
  <path d="M170.454 44.3077V48H73.1724V44.3077C73.1724 42.7873 74.3574 41.5928 75.8656 41.5928H167.653C169.161 41.5928 170.454 42.7873 170.454 44.3077Z" fill="url(#paint0_linear_2029_6527)"/>
  <path opacity="0.8" d="M76.4041 45.7195C76.8801 45.7195 77.2659 45.3305 77.2659 44.8507C77.2659 44.3709 76.8801 43.9819 76.4041 43.9819C75.9281 43.9819 75.5422 44.3709 75.5422 44.8507C75.5422 45.3305 75.9281 45.7195 76.4041 45.7195Z" fill="white"/>
  <path opacity="0.5" d="M78.8819 45.7195C79.3579 45.7195 79.7437 45.3305 79.7437 44.8507C79.7437 44.3709 79.3579 43.9819 78.8819 43.9819C78.4059 43.9819 78.02 44.3709 78.02 44.8507C78.02 45.3305 78.4059 45.7195 78.8819 45.7195Z" fill="white"/>
  <path opacity="0.2" d="M81.3599 45.7195C81.8359 45.7195 82.2217 45.3305 82.2217 44.8507C82.2217 44.3709 81.8359 43.9819 81.3599 43.9819C80.8839 43.9819 80.498 44.3709 80.498 44.8507C80.498 45.3305 80.8839 45.7195 81.3599 45.7195Z" fill="white"/>
  <path d="M66.5713 12.3415C67.9858 11.878 68.7599 10.3463 68.3001 8.92037C67.8403 7.49443 66.3209 6.71419 64.9063 7.17766C63.4917 7.64113 62.7177 9.1728 63.1775 10.5987C63.6372 12.0247 65.1567 12.8049 66.5713 12.3415Z" fill="#2A2E39"/>
  <path d="M83.5145 3.69231C84.526 3.69231 85.346 2.86576 85.346 1.84615C85.346 0.826551 84.526 0 83.5145 0C82.5031 0 81.6831 0.826551 81.6831 1.84615C81.6831 2.86576 82.5031 3.69231 83.5145 3.69231Z" fill="url(#paint1_linear_2029_6527)"/>
  <path d="M127.9 120C128.911 120 129.731 119.173 129.731 118.154C129.731 117.134 128.911 116.308 127.9 116.308C126.888 116.308 126.068 117.134 126.068 118.154C126.068 119.173 126.888 120 127.9 120Z" fill="url(#paint2_linear_2029_6527)"/>
  <path d="M160.8 34.4194C162.469 32.8819 162.586 30.2716 161.06 28.5892C159.535 26.9067 156.946 26.7892 155.277 28.3267C153.608 29.8642 153.491 32.4745 155.016 34.1569C156.541 35.8394 159.131 35.9569 160.8 34.4194Z" fill="#2A2E39"/>
  <path d="M161.103 16.0721C161.805 15.4248 161.854 14.3257 161.212 13.6173C160.57 12.9089 159.48 12.8594 158.777 13.5068C158.074 14.1542 158.025 15.2532 158.667 15.9616C159.31 16.67 160.4 16.7195 161.103 16.0721Z" fill="#2A2E39"/>
  <path d="M162.481 95.0227H153.647C153.324 95.0227 153.001 95.3485 153.001 95.6743V96.2173H76.512V97.1947H153.001V97.7376C153.001 98.0634 153.324 98.3892 153.647 98.3892H162.481C162.805 98.3892 163.128 98.0634 163.128 97.7376V95.6743C163.128 95.2399 162.912 95.0227 162.481 95.0227Z" fill="#2E3746"/>
  <path d="M162.481 83.2939H153.647C153.324 83.2939 153.001 83.6197 153.001 83.9455V84.4885H76.512V85.4659H153.001V86.0089C153.001 86.3347 153.324 86.6605 153.647 86.6605H162.481C162.805 86.6605 163.128 86.3347 163.128 86.0089V83.9455C163.128 83.5111 162.912 83.2939 162.481 83.2939Z" fill="#2E3746"/>
  <path d="M162.481 71.5657H153.647C153.324 71.5657 153.001 71.8915 153.001 72.2173V72.7602H76.512V73.7376H153.001V74.2806C153.001 74.6064 153.324 74.9322 153.647 74.9322H162.481C162.805 74.9322 163.128 74.6064 163.128 74.2806V72.2173C163.128 71.7829 162.912 71.5657 162.481 71.5657Z" fill="#2E3746"/>
  <path d="M162.481 59.8372H153.647C153.324 59.8372 153.001 60.163 153.001 60.4887V61.0317H76.512V62.0091H153.001V62.5521C153.001 62.8779 153.324 63.2037 153.647 63.2037H162.481C162.805 63.2037 163.128 62.8779 163.128 62.5521V60.4887C163.128 60.0544 162.912 59.8372 162.481 59.8372Z" fill="#2E3746"/>
  <path d="M85.7768 85.249H83.8376V99.8011H85.7768V85.249Z" fill="url(#paint3_linear_2029_6527)"/>
  <path d="M91.4865 88.6152H89.5474V97.7374H91.4865V88.6152Z" fill="url(#paint4_linear_2029_6527)"/>
  <path d="M98.2736 92.8506H96.3345V102.624H98.2736V92.8506Z" fill="url(#paint5_linear_2029_6527)"/>
  <path d="M103.984 88.5068H102.044V96.4344H103.984V88.5068Z" fill="url(#paint6_linear_2029_6527)"/>
  <path d="M110.77 91.0046H108.831V104.905H110.77V91.0046Z" fill="url(#paint7_linear_2029_6527)"/>
  <path d="M116.48 59.7285H114.541V93.9367H116.48V59.7285Z" fill="url(#paint8_linear_2029_6527)"/>
  <path d="M123.267 61.2488H121.328V75.8008H123.267V61.2488Z" fill="url(#paint9_linear_2029_6527)"/>
  <path d="M128.977 55.2759H127.038V71.5655H128.977V55.2759Z" fill="url(#paint10_linear_2029_6527)"/>
  <path d="M135.764 51.801H133.825V83.9458H135.764V51.801Z" fill="url(#paint11_linear_2029_6527)"/>
  <path d="M141.474 62.8779H139.535V79.2761H141.474V62.8779Z" fill="url(#paint12_linear_2029_6527)"/>
  <path d="M148.261 72.1086H146.322V83.62H148.261V72.1086Z" fill="url(#paint13_linear_2029_6527)"/>
  <g filter="url(#filter1_d_2029_6527)">
    <path d="M116.48 15.5295C117.988 15.5295 119.174 16.7241 119.174 18.2445V78.516C119.174 80.0363 117.988 81.2309 116.48 81.2309H24.6933C23.185 81.2309 22 80.0363 22 78.516V18.2445C22 16.7241 23.185 15.5295 24.6933 15.5295H116.48Z" fill="#474E61"/>
  </g>
  <path d="M119.174 18.2445V21.9368H22V18.2445C22 16.7241 23.185 15.5295 24.6933 15.5295H116.48C117.988 15.5295 119.174 16.7241 119.174 18.2445Z" fill="url(#paint14_linear_2029_6527)"/>
  <path opacity="0.8" d="M25.232 19.7647C25.708 19.7647 26.0938 19.3757 26.0938 18.8959C26.0938 18.4161 25.708 18.0271 25.232 18.0271C24.756 18.0271 24.3701 18.4161 24.3701 18.8959C24.3701 19.3757 24.756 19.7647 25.232 19.7647Z" fill="white"/>
  <path opacity="0.5" d="M27.7098 19.7647C28.1857 19.7647 28.5716 19.3757 28.5716 18.8959C28.5716 18.4161 28.1857 18.0271 27.7098 18.0271C27.2338 18.0271 26.8479 18.4161 26.8479 18.8959C26.8479 19.3757 27.2338 19.7647 27.7098 19.7647Z" fill="white"/>
  <path opacity="0.2" d="M30.1875 19.7647C30.6635 19.7647 31.0494 19.3757 31.0494 18.8959C31.0494 18.4161 30.6635 18.0271 30.1875 18.0271C29.7115 18.0271 29.3257 18.4161 29.3257 18.8959C29.3257 19.3757 29.7115 19.7647 30.1875 19.7647Z" fill="white"/>
  <path d="M111.417 30.4072H73.0645V46.8054H111.417V30.4072Z" fill="#2E3746"/>
  <path d="M111.417 54.8416H73.0645V71.2397H111.417V54.8416Z" fill="#2E3746"/>
  <path opacity="0.2" d="M102.152 42.6786L98.0583 38.8777L90.4094 41.484L85.9924 37.6831L82.1141 36.2713L76.6198 38.8777L73.1724 34.751V46.6967H102.152V42.6786Z" fill="#E9529E"/>
  <path d="M73.1724 34.5339L76.6198 38.552L82.1141 35.9457L85.9924 37.4661L90.4094 41.267L98.0583 38.6606L102.044 42.5701" stroke="#E9529E" stroke-width="2" stroke-miterlimit="10" stroke-linejoin="round"/>
  <path opacity="0.2" d="M102.152 60.7059L98.0583 63.095L90.4094 62.2262L85.9924 65.267L82.1141 67.9819L76.6198 63.638L73.1724 65.1584V71.5656H102.152C102.152 71.5656 102.152 60.5973 102.152 60.7059Z" fill="#7089FF"/>
  <path d="M73.1724 64.9413L76.6198 63.4209L82.1141 67.7648L85.9924 65.0499L90.4094 62.0091L98.0583 62.8779L102.044 60.4888" stroke="#7089FF" stroke-width="2" stroke-miterlimit="10" stroke-linejoin="round"/>
  <path d="M102.412 45.7732C103.779 45.7732 104.887 44.6654 104.887 43.2989C104.887 41.9325 103.779 40.8247 102.412 40.8247C101.046 40.8247 99.9382 41.9325 99.9382 43.2989C99.9382 44.6654 101.046 45.7732 102.412 45.7732Z" fill="#E9529E"/>
  <path d="M102.412 63.0927C103.779 63.0927 104.887 61.985 104.887 60.6185C104.887 59.252 103.779 58.1443 102.412 58.1443C101.046 58.1443 99.9382 59.252 99.9382 60.6185C99.9382 61.985 101.046 63.0927 102.412 63.0927Z" fill="#7089FF"/>
  <path d="M65.7389 57.1222H31.5881C30.7262 57.1222 30.0798 56.4706 30.0798 55.6018V31.9276C30.0798 31.0588 30.7262 30.4072 31.5881 30.4072H65.8466C66.7084 30.4072 67.3548 31.0588 67.3548 31.9276V55.7104C67.2471 56.4706 66.6007 57.1222 65.7389 57.1222Z" fill="#2E3746"/>
  <path d="M49.3637 51.3667H36.9746L43.1153 44.3079L49.3637 51.3667Z" fill="#1A2531"/>
  <path d="M59.4905 51.3664H41.7148L50.6565 41.2668L59.4905 51.3664Z" fill="#474E61"/>
  <path d="M41.6071 41.81C42.9161 41.81 43.9772 40.7404 43.9772 39.4209C43.9772 38.1014 42.9161 37.0317 41.6071 37.0317C40.2982 37.0317 39.2371 38.1014 39.2371 39.4209C39.2371 40.7404 40.2982 41.81 41.6071 41.81Z" fill="#1A2531"/>
  <path d="M78.6666 95.0228C78.6666 96.5432 78.4511 98.0635 78.1279 99.4753C77.9125 100.453 77.5893 101.43 77.2661 102.299C75.1115 107.946 70.479 112.29 64.7693 114.245C64.3383 114.353 63.7997 114.57 63.3688 114.679C61.8605 115.005 60.2446 115.222 58.6286 115.222C47.5323 115.222 38.5906 106.208 38.5906 95.0228C38.5906 83.8373 47.64 74.8237 58.6286 74.8237C69.7249 74.8237 78.6666 83.8373 78.6666 95.0228Z" fill="url(#paint15_linear_2029_6527)"/>
  <path d="M78.128 99.4754C77.9126 100.453 77.5894 101.43 77.2662 102.299C75.1116 107.946 70.4791 112.29 64.7694 114.245C64.3384 114.353 63.7998 114.57 63.3689 114.679L48.502 99.5839L53.8885 94.6971L60.0292 98.8238L66.3853 92.9595L67.4626 91.9821L68.8632 90.136L78.128 99.4754Z" fill="url(#paint16_linear_2029_6527)"/>
  <path d="M69.0786 90.4616C69.0786 90.1359 68.7554 89.8101 68.4322 89.8101H62.6147C62.2915 89.8101 61.9683 90.1359 61.9683 90.4616V91.7648C61.9683 92.0906 62.2915 92.4164 62.6147 92.4164H64.6616L59.9215 97.1947L55.289 92.525C54.7504 91.982 53.9962 91.982 53.4576 92.525L48.071 97.9549C47.8556 98.172 47.8556 98.6064 48.071 98.9322L48.9329 99.9096C49.1483 100.127 49.5793 100.127 49.9024 99.9096L54.3194 95.4571L58.9519 100.127C59.4905 100.67 60.2446 100.67 60.7833 100.127L66.3853 94.3711V96.4345C66.3853 96.7603 66.7085 97.0861 67.0317 97.0861H68.3245C68.6477 97.0861 68.9709 96.7603 68.9709 96.4345L69.0786 90.4616Z" fill="url(#paint17_linear_2029_6527)"/>
  <path d="M47.4246 59.8372H46.5627V75.0408H47.4246V59.8372Z" fill="#2E3746"/>
  <path d="M146.322 28.0182C146.322 29.5386 146.106 31.059 145.783 32.4707C145.568 33.4481 145.245 34.4255 144.921 35.2943C142.767 40.9413 138.134 45.2852 132.425 47.24C132.209 47.3486 131.886 47.4571 131.67 47.4571C131.455 47.4571 131.239 47.5657 131.024 47.6743C129.516 48.0001 127.9 48.2173 126.284 48.2173C115.188 48.2173 106.246 39.2038 106.246 28.0182C106.246 16.8327 115.295 7.92773 126.284 7.92773C137.38 7.92773 146.322 16.9413 146.322 28.0182Z" fill="url(#paint18_linear_2029_6527)"/>
  <path d="M145.093 34.0208C142.938 39.6678 139.499 45.1206 133.789 47.0754C133.574 47.184 133.251 47.2926 133.035 47.2926L123.878 38.0618L123.124 22.5324L127.972 20.5776L129.264 17.6455L138.637 27.0935C145.093 33.4022 145.416 33.152 145.093 34.0208Z" fill="url(#paint19_linear_2029_6527)"/>
  <path d="M128.403 38.3875C127.756 38.3875 127.218 37.8445 127.218 37.1929V35.6725H125.817V37.1929C125.817 37.8445 125.278 38.3875 124.632 38.3875C123.986 38.3875 123.447 37.8445 123.447 37.1929V35.6725H122.585C121.723 35.6725 120.969 34.9123 120.969 34.0436V21.6635C120.969 20.7947 121.723 20.0345 122.585 20.0345H123.447V18.5142C123.447 18.1884 123.555 17.8626 123.77 17.6454C123.986 17.4282 124.309 17.3196 124.632 17.3196C125.278 17.3196 125.817 17.8626 125.817 18.5142V20.0345H127.218V18.5142C127.218 17.8626 127.756 17.3196 128.403 17.3196C129.049 17.3196 129.588 17.8626 129.588 18.5142V20.0345H129.695C130.773 20.1431 131.635 20.5775 132.389 21.3377C133.035 21.9893 133.466 22.9666 133.466 23.944C133.466 25.3558 132.712 26.6589 131.419 27.3105L131.204 27.4191L131.419 27.5277C133.466 28.2879 134.328 29.4825 134.328 31.3286C134.328 34.5865 131.419 35.3467 129.695 35.5639H129.588V37.1929C129.588 37.5187 129.48 37.8445 129.265 38.0617C128.941 38.2789 128.618 38.3875 128.403 38.3875ZM128.403 32.849C130.557 32.849 130.988 31.8716 130.988 31.0028C130.988 29.8083 130.019 29.1567 128.295 29.1567H124.201V32.849H128.403ZM127.541 26.4418C129.695 26.4418 130.126 25.4644 130.126 24.7042C130.126 23.1838 128.618 22.9666 127.756 22.9666H124.309V26.5504H127.541V26.4418Z" fill="url(#paint20_linear_2029_6527)"/>
  <path d="M59.4906 62.1177H47.2092V65.81H59.4906V62.1177Z" fill="url(#paint21_linear_2029_6527)"/>
  <path opacity="0.3" d="M47.1014 62.1177H31.6958V65.81H47.1014V62.1177Z" fill="url(#paint22_linear_2029_6527)"/>
  <path d="M40.5295 72.6515H46.9934V68.8506H40.5295V72.6515Z" fill="url(#paint23_linear_2029_6527)"/>
  <path opacity="0.3" d="M46.9937 72.6515H65.5234V68.8506H46.9937V72.6515Z" fill="url(#paint24_linear_2029_6527)"/>
  <defs>
    <filter id="filter0_d_2029_6527" x="51.1724" y="30.5928" width="141.174" height="109.701" filterUnits="userSpaceOnUse" color-interpolation-filters="sRGB">
      <feFlood flood-opacity="0" result="BackgroundImageFix"/>
      <feColorMatrix in="SourceAlpha" type="matrix" values="0 0 0 0 0 0 0 0 0 0 0 0 0 0 0 0 0 0 127 0" result="hardAlpha"/>
      <feOffset dy="11"/>
      <feGaussianBlur stdDeviation="11"/>
      <feColorMatrix type="matrix" values="0 0 0 0 0 0 0 0 0 0 0 0 0 0 0 0 0 0 0.18 0"/>
      <feBlend mode="normal" in2="BackgroundImageFix" result="effect1_dropShadow_2029_6527"/>
      <feBlend mode="normal" in="SourceGraphic" in2="effect1_dropShadow_2029_6527" result="shape"/>
    </filter>
    <filter id="filter1_d_2029_6527" x="0" y="4.52954" width="141.174" height="109.701" filterUnits="userSpaceOnUse" color-interpolation-filters="sRGB">
      <feFlood flood-opacity="0" result="BackgroundImageFix"/>
      <feColorMatrix in="SourceAlpha" type="matrix" values="0 0 0 0 0 0 0 0 0 0 0 0 0 0 0 0 0 0 127 0" result="hardAlpha"/>
      <feOffset dy="11"/>
      <feGaussianBlur stdDeviation="11"/>
      <feColorMatrix type="matrix" values="0 0 0 0 0 0 0 0 0 0 0 0 0 0 0 0 0 0 0.18 0"/>
      <feBlend mode="normal" in2="BackgroundImageFix" result="effect1_dropShadow_2029_6527"/>
      <feBlend mode="normal" in="SourceGraphic" in2="effect1_dropShadow_2029_6527" result="shape"/>
    </filter>
    <linearGradient id="paint0_linear_2029_6527" x1="100.46" y1="44.8329" x2="174.707" y2="44.8329" gradientUnits="userSpaceOnUse">
      <stop stop-color="#8893AE"/>
      <stop offset="1" stop-color="#474E61"/>
    </linearGradient>
    <linearGradient id="paint1_linear_2029_6527" x1="81.7342" y1="1.79479" x2="85.2951" y2="1.79479" gradientUnits="userSpaceOnUse">
      <stop stop-color="#83A6FF"/>
      <stop offset="1" stop-color="#5A78FF"/>
    </linearGradient>
    <linearGradient id="paint2_linear_2029_6527" x1="126.147" y1="118.195" x2="129.708" y2="118.195" gradientUnits="userSpaceOnUse">
      <stop stop-color="#FF66A9"/>
      <stop offset="1" stop-color="#F53689"/>
    </linearGradient>
    <linearGradient id="paint3_linear_2029_6527" x1="84.7668" y1="59.0009" x2="84.7668" y2="92.8476" gradientUnits="userSpaceOnUse">
      <stop stop-color="#83A6FF"/>
      <stop offset="1" stop-color="#5A78FF"/>
    </linearGradient>
    <linearGradient id="paint4_linear_2029_6527" x1="90.4994" y1="59.0006" x2="90.4994" y2="92.8473" gradientUnits="userSpaceOnUse">
      <stop stop-color="#83A6FF"/>
      <stop offset="1" stop-color="#5A78FF"/>
    </linearGradient>
    <linearGradient id="paint5_linear_2029_6527" x1="97.274" y1="63.2845" x2="97.274" y2="102.832" gradientUnits="userSpaceOnUse">
      <stop stop-color="#FF66A9"/>
      <stop offset="1" stop-color="#F53689"/>
    </linearGradient>
    <linearGradient id="paint6_linear_2029_6527" x1="103.007" y1="59.0008" x2="103.007" y2="92.8475" gradientUnits="userSpaceOnUse">
      <stop stop-color="#83A6FF"/>
      <stop offset="1" stop-color="#5A78FF"/>
    </linearGradient>
    <linearGradient id="paint7_linear_2029_6527" x1="109.781" y1="63.2848" x2="109.781" y2="102.832" gradientUnits="userSpaceOnUse">
      <stop stop-color="#FF66A9"/>
      <stop offset="1" stop-color="#F53689"/>
    </linearGradient>
    <linearGradient id="paint8_linear_2029_6527" x1="115.514" y1="59.0008" x2="115.514" y2="92.8474" gradientUnits="userSpaceOnUse">
      <stop stop-color="#83A6FF"/>
      <stop offset="1" stop-color="#5A78FF"/>
    </linearGradient>
    <linearGradient id="paint9_linear_2029_6527" x1="122.288" y1="63.2845" x2="122.288" y2="102.832" gradientUnits="userSpaceOnUse">
      <stop stop-color="#FF66A9"/>
      <stop offset="1" stop-color="#F53689"/>
    </linearGradient>
    <linearGradient id="paint10_linear_2029_6527" x1="128.021" y1="59.0007" x2="128.021" y2="92.8473" gradientUnits="userSpaceOnUse">
      <stop stop-color="#83A6FF"/>
      <stop offset="1" stop-color="#5A78FF"/>
    </linearGradient>
    <linearGradient id="paint11_linear_2029_6527" x1="134.796" y1="59.0009" x2="134.796" y2="92.8475" gradientUnits="userSpaceOnUse">
      <stop stop-color="#83A6FF"/>
      <stop offset="1" stop-color="#5A78FF"/>
    </linearGradient>
    <linearGradient id="paint12_linear_2029_6527" x1="140.528" y1="63.2847" x2="140.528" y2="102.832" gradientUnits="userSpaceOnUse">
      <stop stop-color="#FF66A9"/>
      <stop offset="1" stop-color="#F53689"/>
    </linearGradient>
    <linearGradient id="paint13_linear_2029_6527" x1="147.303" y1="63.2847" x2="147.303" y2="102.832" gradientUnits="userSpaceOnUse">
      <stop stop-color="#FF66A9"/>
      <stop offset="1" stop-color="#F53689"/>
    </linearGradient>
    <linearGradient id="paint14_linear_2029_6527" x1="49.2575" y1="18.7697" x2="123.422" y2="18.7697" gradientUnits="userSpaceOnUse">
      <stop stop-color="#8893AE"/>
      <stop offset="1" stop-color="#474E61"/>
    </linearGradient>
    <linearGradient id="paint15_linear_2029_6527" x1="47.907" y1="78.5035" x2="70.2" y2="112.184" gradientUnits="userSpaceOnUse">
      <stop stop-color="#83A6FF"/>
      <stop offset="1" stop-color="#5A78FF"/>
    </linearGradient>
    <linearGradient id="paint16_linear_2029_6527" x1="57.3761" y1="93.5311" x2="70.0602" y2="106.114" gradientUnits="userSpaceOnUse">
      <stop stop-color="#4F6AFF"/>
      <stop offset="1" stop-color="#657EFF" stop-opacity="0"/>
    </linearGradient>
    <linearGradient id="paint17_linear_2029_6527" x1="64.1526" y1="100.242" x2="56.4728" y2="92.6232" gradientUnits="userSpaceOnUse">
      <stop offset="0.0113208" stop-color="#C2D1FF"/>
      <stop offset="1" stop-color="white"/>
    </linearGradient>
    <linearGradient id="paint18_linear_2029_6527" x1="115.526" y1="11.5078" x2="137.819" y2="45.1879" gradientUnits="userSpaceOnUse">
      <stop stop-color="#FF66A9"/>
      <stop offset="1" stop-color="#F53689"/>
    </linearGradient>
    <linearGradient id="paint19_linear_2029_6527" x1="123.884" y1="25.1155" x2="138.087" y2="39.2049" gradientUnits="userSpaceOnUse">
      <stop stop-color="#E81778"/>
      <stop offset="1" stop-color="#E01F79" stop-opacity="0"/>
    </linearGradient>
    <linearGradient id="paint20_linear_2029_6527" x1="134.822" y1="36.2731" x2="123.034" y2="24.5792" gradientUnits="userSpaceOnUse">
      <stop offset="0.0113208" stop-color="#FFC9E3"/>
      <stop offset="1" stop-color="white"/>
    </linearGradient>
    <linearGradient id="paint21_linear_2029_6527" x1="47.2003" y1="63.9929" x2="59.4438" y2="63.9929" gradientUnits="userSpaceOnUse">
      <stop stop-color="#FF66A9"/>
      <stop offset="1" stop-color="#F53689"/>
    </linearGradient>
    <linearGradient id="paint22_linear_2029_6527" x1="31.7452" y1="63.9929" x2="47.2002" y2="63.9929" gradientUnits="userSpaceOnUse">
      <stop stop-color="#FF66A9"/>
      <stop offset="1" stop-color="#F53689"/>
    </linearGradient>
    <linearGradient id="paint23_linear_2029_6527" x1="47.0123" y1="70.7708" x2="40.4761" y2="70.7708" gradientUnits="userSpaceOnUse">
      <stop stop-color="#83A6FF"/>
      <stop offset="1" stop-color="#5A78FF"/>
    </linearGradient>
    <linearGradient id="paint24_linear_2029_6527" x1="65.5655" y1="70.7708" x2="47.0125" y2="70.7708" gradientUnits="userSpaceOnUse">
      <stop stop-color="#83A6FF"/>
      <stop offset="1" stop-color="#5A78FF"/>
    </linearGradient>
  </defs>
</svg>