<svg xmlns="http://www.w3.org/2000/svg" width="20" height="20" viewBox="0 0 20 20" fill="none">
  <path d="M10.0002 0.833496C4.93755 0.833496 0.833496 4.93755 0.833496 10.0002C0.833496 15.0628 4.93755 19.1668 10.0002 19.1668C15.0628 19.1668 19.1668 15.0628 19.1668 10.0002C19.1668 8.79082 18.9326 7.63616 18.5071 6.57909C18.3294 6.13743 18.2405 5.91661 18.0301 5.77392C17.8635 5.66097 17.5994 5.60713 17.4019 5.64587C17.1525 5.6948 16.9585 5.88901 16.5704 6.27744L10.5897 12.2641C10.4335 12.4205 10.2215 12.5084 10.0004 12.5085C9.77929 12.5086 9.56724 12.4208 9.41091 12.2644L6.91091 9.76442C6.58547 9.43898 6.58547 8.91134 6.91091 8.58591C7.23634 8.26047 7.76398 8.26047 8.08942 8.58591L9.99987 10.4964L15.8148 4.67562C16.1279 4.3622 16.2844 4.20549 16.3441 4.00051C16.3921 3.8357 16.3807 3.61328 16.3162 3.45422C16.2359 3.2564 16.0861 3.13432 15.7864 2.89016C14.2085 1.60441 12.1943 0.833496 10.0002 0.833496Z" fill="white"/>
</svg>