<svg xmlns="http://www.w3.org/2000/svg" width="18" height="18" viewBox="0 0 18 18" fill="none">
  <g clip-path="url(#clip0_2255_240)">
    <path d="M16.815 0H1.18497C0.530489 0 0 0.565929 0 1.26413V12.2362C0 12.9344 0.530489 13.5004 1.18497 13.5004H16.8154C17.4699 13.5004 18.0004 12.9344 18.0004 12.2362V1.26413C18.0004 0.565929 17.4699 0 16.8154 0H16.815ZM4.36192 4.73862C4.34924 4.66234 4.98364 4.07687 5.06008 3.95098L4.36192 3.13628L5.08474 2.36518C5.15624 2.35165 5.70505 3.02843 5.82305 3.1096L6.58673 2.36518L7.30955 3.13628C7.32223 3.21257 6.68783 3.79804 6.61139 3.92392L7.30955 4.73862L6.58673 5.50973C6.51523 5.52326 5.96642 4.84647 5.84841 4.7653L5.08474 5.50973L4.36192 4.73862ZM12.6916 11.2502H11.6369V10.369C11.6369 9.99395 11.3069 9.26793 11.0892 8.9658C9.92994 7.35858 7.57233 7.56977 6.67409 9.35023C6.56701 9.56255 6.36376 10.1435 6.36376 10.369V11.2502H5.30912C5.19886 9.82033 5.68849 8.41115 6.77413 7.54422C8.11585 6.47248 9.93734 6.48827 11.2674 7.57616C12.3256 8.44121 12.8004 9.84626 12.6919 11.2506L12.6916 11.2502ZM13.6381 4.73862L12.9153 5.50973C12.8438 5.52326 12.295 4.84647 12.1769 4.7653L11.4133 5.50973L10.6904 4.73862C10.6778 4.66234 11.3122 4.07687 11.3886 3.95098L10.6904 3.13628L11.4133 2.36518C11.4848 2.35165 12.0336 3.02843 12.1516 3.1096L12.9153 2.36518L13.6381 3.13628C13.6508 3.21257 13.0164 3.79804 12.9399 3.92392L13.6381 4.73862Z" fill="white"/>
    <path d="M13.4874 16.8747H11.5487L11.09 15.0511C11.0263 14.7982 10.8114 14.6227 10.5662 14.623L7.41747 14.6279C7.17124 14.6279 6.95602 14.8061 6.89402 15.0601L6.45124 16.8747H4.51246C4.36944 16.8747 4.25391 16.9984 4.25391 17.1506V17.7236C4.25391 17.8762 4.3698 17.9995 4.51246 17.9995H13.4874C13.6305 17.9995 13.746 17.8758 13.746 17.7236V17.1506C13.746 16.998 13.6301 16.8747 13.4874 16.8747Z" fill="white"/>
  </g>
  <defs>
    <clipPath id="clip0_2255_240">
      <rect width="18" height="18" fill="white"/>
    </clipPath>
  </defs>
</svg>