<svg xmlns="http://www.w3.org/2000/svg" width="20" height="20" viewBox="0 0 20 20" fill="none">
  <path fill-rule="evenodd" clip-rule="evenodd" d="M9.66439 0.987294C9.88591 0.941735 10.1144 0.941735 10.3359 0.987294C10.592 1.03996 10.8208 1.16815 11.0028 1.27006L11.0524 1.29776L17.219 4.72369L17.2717 4.75275C17.4643 4.85884 17.7064 4.99223 17.8924 5.19405C18.0532 5.36853 18.1749 5.57533 18.2493 5.80063C18.3354 6.06121 18.3344 6.3377 18.3336 6.55759L18.3335 6.6177V13.382L18.3336 13.4421C18.3344 13.662 18.3354 13.9384 18.2493 14.199C18.1749 14.4243 18.0532 14.6311 17.8924 14.8056C17.7065 15.0074 17.4643 15.1408 17.2717 15.2469L17.219 15.276L11.0524 18.7019L11.0028 18.7296C10.8208 18.8315 10.592 18.9597 10.3359 19.0124C10.1144 19.0579 9.88591 19.0579 9.66439 19.0124C9.40833 18.9597 9.17946 18.8315 8.99751 18.7296L8.94792 18.7019L2.78125 15.276L2.72864 15.2469C2.53603 15.1408 2.29384 15.0074 2.10787 14.8056C1.94707 14.6311 1.82539 14.4243 1.75095 14.199C1.66485 13.9384 1.66586 13.662 1.66666 13.4421L1.66681 13.382V6.6177L1.66666 6.55759C1.66586 6.3377 1.66485 6.06121 1.75095 5.80063C1.82539 5.57533 1.94707 5.36853 2.10787 5.19405C2.29385 4.99223 2.53603 4.85884 2.72864 4.75275L2.78125 4.72369L8.94792 1.29776L8.99751 1.27006C9.17946 1.16815 9.40833 1.03996 9.66439 0.987294ZM10.0001 9.16642C10.4604 9.16642 10.8335 9.53952 10.8335 9.99976V13.3331C10.8335 13.7933 10.4604 14.1664 10.0001 14.1664C9.5399 14.1664 9.16681 13.7933 9.16681 13.3331V9.99976C9.16681 9.53952 9.5399 9.16642 10.0001 9.16642ZM10.0001 5.83309C9.5399 5.83309 9.16681 6.20619 9.16681 6.66642C9.16681 7.12666 9.5399 7.49976 10.0001 7.49976H10.0085C10.4687 7.49976 10.8418 7.12666 10.8418 6.66642C10.8418 6.20619 10.4687 5.83309 10.0085 5.83309H10.0001Z" fill="white"/>
</svg>