<svg xmlns="http://www.w3.org/2000/svg" width="20" height="20" viewBox="0 0 20 20" fill="none">
  <path d="M7.49992 9.58339L9.16659 11.2501L12.9166 7.50005M16.6666 10.0001C16.6666 14.0904 12.205 17.0654 10.5816 18.0125C10.3971 18.1201 10.3048 18.1739 10.1747 18.2018C10.0736 18.2235 9.92622 18.2235 9.82519 18.2018C9.695 18.1739 9.60275 18.1201 9.41826 18.0125C7.79489 17.0654 3.33325 14.0904 3.33325 10.0001V6.01472C3.33325 5.34846 3.33325 5.01533 3.44222 4.72898C3.53848 4.47601 3.6949 4.25029 3.89797 4.07133C4.12783 3.86875 4.43975 3.75178 5.06359 3.51785L9.53175 1.84228C9.705 1.77732 9.79162 1.74483 9.88074 1.73196C9.95978 1.72053 10.0401 1.72053 10.1191 1.73196C10.2082 1.74483 10.2948 1.77732 10.4681 1.84228L14.9362 3.51785C15.5601 3.75178 15.872 3.86875 16.1019 4.07133C16.3049 4.25029 16.4614 4.47601 16.5576 4.72898C16.6666 5.01533 16.6666 5.34846 16.6666 6.01472V10.0001Z" stroke="#94A3B8" stroke-width="1.5" stroke-linecap="round" stroke-linejoin="round"/>
</svg>